<svg xmlns="http://www.w3.org/2000/svg"
  viewBox="0,0,256,256" width="64px" height="64px" fill-rule="nonzero">
  <g fill="#ffffff" fill-rule="nonzero" stroke="none" stroke-width="1" stroke-linecap="butt"
    stroke-linejoin="miter" stroke-miterlimit="10" stroke-dasharray="" stroke-dashoffset="0"
    font-family="none" font-weight="none" font-size="none" text-anchor="none"
    style="mix-blend-mode: normal">
    <path
      d="M64,256c-35.34622,0 -64,-28.65378 -64,-64v-128c0,-35.34622 28.65378,-64 64,-64h128c35.34622,0 64,28.65378 64,64v128c0,35.34622 -28.65378,64 -64,64z"
      id="shape"></path>
  </g>
  <g fill="#000000" fill-rule="nonzero" stroke="none" stroke-width="1" stroke-linecap="butt"
    stroke-linejoin="miter" stroke-miterlimit="10" stroke-dasharray="" stroke-dashoffset="0"
    font-family="none" font-weight="none" font-size="none" text-anchor="none"
    style="mix-blend-mode: normal">
    <g transform="scale(8,8)">
      <path
        d="M12,4v2h8v-2zM20,6v2h5v-2zM25,8v2h2v-2zM27,10v4h2v-4zM27,14h-2v2h2zM25,16h-2v11h4v-2h-2zM12,6h-2v2h2zM12,8v2h5v4h2v-6zM17,14h-5v2h5zM12,16h-4v2h4zM8,18h-2v5h2zM6,23h-2v2h2zM6,25v2h15v-4h-2v2zM19,23v-2h-4v2zM15,21v-2h-2v2zM22,10v2h2v-2z"></path>
    </g>
  </g>
</svg>